<svg width="1066" height="716" viewBox="0 0 1066 716" fill="none" xmlns="http://www.w3.org/2000/svg">
<g clip-path="url(#clip0_257_704)">
<path d="M775 578C775 587.389 631.955 595 455.5 595C279.045 595 136 587.389 136 578C136 568.611 279.045 561 455.5 561C631.955 561 775 568.611 775 578Z" fill="#8F8665" fill-opacity="0.4"/>
<path opacity="0.4" fill-rule="evenodd" clip-rule="evenodd" d="M982.017 238.916C1008.65 352.489 900.838 471.645 741.217 505.057C694.978 514.736 649.463 516.158 607.486 510.534C610.132 527.888 608.41 545.555 602.875 562.94C558.539 561.701 508.058 561 454.5 561C382.589 561 316.226 562.264 262.833 564.397L128 564.397C146.251 496.212 223.734 431.313 327.326 405.331C357.805 397.686 387.882 394.079 416.384 394.106C410.96 383.285 406.778 371.868 403.975 359.912C377.343 246.338 485.153 127.183 644.775 93.7703C804.397 60.358 955.385 125.342 982.017 238.916Z" fill="#C9E5FF"/>
<path d="M779.264 663.5C779.264 665.985 759.341 668 734.764 668C710.187 668 690.264 665.985 690.264 663.5C690.264 661.015 710.187 659 734.764 659C759.341 659 779.264 661.015 779.264 663.5Z" fill="#8F8665" fill-opacity="0.4"/>
<path d="M834.264 644.5C834.264 646.985 819.042 649 800.264 649C781.487 649 766.264 646.985 766.264 644.5C766.264 642.015 781.487 640 800.264 640C819.042 640 834.264 642.015 834.264 644.5Z" fill="#8F8665" fill-opacity="0.4"/>
<path d="M684.045 161.846H659.264C668.584 160.67 676.8 160.766 684.045 161.846H776.727C805.724 161.846 824.401 207.403 824.401 224.522C824.401 267.648 797.369 307.898 800.81 336.649C803.562 359.649 819.813 379.199 832.264 395.875L744.781 416C730.037 405.65 700.961 351.599 714.801 296.398C722.534 265.554 741.341 230.847 734.46 208.422C728.859 190.166 715.766 166.575 684.045 161.846Z" fill="white"/>
<path d="M300.52 500.134C299.407 495.98 295.137 493.515 290.983 494.628C286.829 495.741 284.364 500.011 285.477 504.165L304.989 576.982C306.102 581.136 310.371 583.601 314.525 582.488C318.679 581.375 321.144 577.105 320.031 572.951L300.52 500.134Z" fill="#8B9586"/>
<path d="M219.078 497.936C220.191 493.782 224.461 491.317 228.615 492.43C232.769 493.543 235.234 497.812 234.121 501.966L214.609 574.783C213.496 578.937 209.227 581.402 205.073 580.289C200.919 579.176 198.454 574.907 199.567 570.753L219.078 497.936Z" fill="#98A992"/>
<path d="M145.863 377.289C136.414 353.921 153.926 328.502 179.125 329.007L287.52 331.182C304.75 331.527 319.183 344.326 321.59 361.392L335.914 462.974C338.895 484.112 322.486 503 301.14 503H220.374C206.062 503 193.182 494.314 187.817 481.045L145.863 377.289Z" fill="#EB758B"/>
<path d="M159.803 223.309C126.91 273.5 141.069 336.293 177.265 389.5C197.807 419.698 223.988 455.093 262.265 465.133C295.79 473.927 320.646 463.487 330.728 465.133C355.211 469.129 332.787 511.142 342.586 509.933C352.384 508.724 367.913 510.359 377.993 499.758C396.285 480.522 415.546 456.572 416.131 452.401C423.658 444.192 441.299 428.047 451.648 429.135C464.584 430.496 465.26 434.322 471.497 430.932C477.734 427.541 478.478 422.412 477.587 405.318C476.875 391.644 453.265 378.849 434.98 372.795C441.7 370.779 436.294 377.021 447.189 361.663C470.963 328.154 442.07 308.698 440.098 313.993C434.98 327.733 427.826 329.196 418.173 330.78C403.529 333.183 403.954 317.292 402.33 284.907C400.034 239.106 361.894 181.285 291.565 173.044C269.902 170.506 197.175 166.283 159.803 223.309Z" fill="#B4A8FF"/>
<path d="M368.65 463.484C368.951 477 340.202 508.992 343.368 510.75C346.535 512.506 371.315 509.104 384.039 499.208C403.824 483.819 412.882 464.797 418.663 452.492C427.141 434.449 452.194 431.402 458.841 433.85C471.961 439.683 467.553 452.551 473.07 445.661C482.473 433.918 485.693 410.458 485.084 404.088C484.06 393.368 457.891 367.842 444.534 367.669C453.288 362.358 457.136 348.015 457.136 339.275C457.135 318.322 439.373 307.847 438.999 316.741C438.625 325.635 438.999 334.328 429.106 342.572C411.972 356.85 389.111 345.961 393.826 349.405C407.5 359.394 413.991 390.993 412.618 414.02C411.957 425.111 400.002 456.71 396.13 452.492C392.257 448.274 385.687 431.563 374.695 426.111C356.559 417.116 343.368 422.814 343.368 422.814C343.368 422.814 367.975 433.153 368.65 463.484Z" fill="#6F61C4"/>
<path d="M638.981 398.647C638.191 394.163 641.185 389.888 645.669 389.097C650.152 388.306 654.428 391.3 655.219 395.784L689.025 587.51C689.816 591.993 686.822 596.269 682.338 597.06C677.854 597.851 673.578 594.857 672.788 590.373L638.981 398.647Z" fill="#76746E"/>
<path d="M682.732 241.706L600.264 245C607.411 202.176 636.294 165.106 658.782 162.236C670.702 160.714 706.276 155.04 727.264 191.781C695.003 191.323 687.734 221.168 682.787 241.478L682.732 241.706Z" fill="#DBEDFF"/>
<path d="M858.716 402L769.264 428.519C781.591 438.192 811.541 453.236 814.74 482.056C817.938 510.877 806.775 530.991 796.114 544C821.6 541.331 885.977 517.031 885.977 517.031C885.977 517.031 907.689 497.067 906.19 472.049C903.282 423.515 874.041 417.011 858.716 402Z" fill="#DBEDFF"/>
<path d="M899.264 442.914C899.264 442.914 888.85 412.842 858.156 403C848.289 405.187 765.584 427.539 768.331 428.57C782.774 433.99 806.633 460.41 814.306 479L899.264 442.914Z" fill="white"/>
<path d="M604.601 597.727L557.712 575.602C558.567 584.805 558.876 607.49 545.955 620.12C533.034 632.749 513.071 626.353 501.653 626.715C509.295 637.707 538.851 656.484 545.955 657.029C554.835 657.712 579.708 656.335 591.514 645.935C600.958 637.615 604.174 610.329 604.601 597.727Z" fill="#DBEDFF"/>
<path d="M520.833 631.293C541.206 629.232 578.138 635.762 604.959 600.504C595.972 652.508 567.969 666.704 520.833 631.293Z" fill="white"/>
<path d="M729.588 607.531L720.407 574.176C712.262 575.403 690.801 576.274 670.111 569.941C649.422 563.609 628.154 549.095 620.106 542.631C619.272 550.898 629.53 574.862 633.807 578.947C639.153 584.052 657.243 598.088 675.066 603.966C689.325 608.668 717.355 608.302 729.588 607.531Z" fill="#DBEDFF"/>
<path fill-rule="evenodd" clip-rule="evenodd" d="M552.414 258.968C554.433 258.648 556.329 260.031 556.648 262.057L558.995 276.968C559.314 278.993 557.935 280.895 555.915 281.214C553.895 281.534 552 280.151 551.681 278.125L549.334 263.214C549.015 261.189 550.394 259.287 552.414 258.968Z" fill="#EB758A"/>
<path fill-rule="evenodd" clip-rule="evenodd" d="M520.306 269.716C521.782 268.302 524.127 268.358 525.545 269.841L532.147 276.747C533.565 278.23 533.518 280.578 532.042 281.992C530.566 283.406 528.22 283.351 526.802 281.868L520.2 274.961C518.783 273.479 518.83 271.13 520.306 269.716ZM505.315 301.356C505.854 299.382 507.891 298.224 509.865 298.77L523.196 302.46C525.17 303.006 526.334 305.05 525.795 307.025C525.257 309 523.22 310.158 521.245 309.611L507.915 305.922C505.94 305.375 504.776 303.331 505.315 301.356Z" fill="#EB758A"/>
<path fill-rule="evenodd" clip-rule="evenodd" d="M696.112 433.053C694.997 433.363 693.649 432.723 693.101 431.624L690.549 426.503C690.001 425.404 690.46 424.261 691.575 423.951C692.69 423.641 694.039 424.28 694.587 425.38L697.139 430.501C697.687 431.6 697.227 432.743 696.112 433.053ZM710.618 421.404C709.943 422.235 708.55 422.273 707.507 421.489L700.466 416.193C699.423 415.409 699.125 414.1 699.801 413.269C700.476 412.439 701.869 412.401 702.912 413.185L709.953 418.48C710.996 419.265 711.294 420.574 710.618 421.404Z" fill="white"/>
<path d="M216.265 487.5C216.265 481.149 221.436 476 227.815 476H303.715C310.093 476 315.265 481.149 315.265 487.5C315.265 493.851 310.093 499 303.715 499H227.815C221.436 499 216.265 493.851 216.265 487.5Z" fill="#FB8DA1"/>
<path d="M234.29 588.078C233.499 592.561 229.224 595.555 224.74 594.765C220.256 593.974 217.262 589.698 218.053 585.215L251.859 393.489C252.65 389.005 256.925 386.011 261.409 386.802C265.893 387.592 268.887 391.868 268.096 396.352L234.29 588.078Z" fill="#76746E"/>
<path d="M116.217 556.814L232.457 561.18L261.586 617.789L151.795 654.365L116.217 636.11V556.814Z" fill="#DBEDFF"/>
<path d="M282.47 565.577L250.249 570.909L181.344 617.793L250.249 654.062L272.578 635.961V602.949L270.929 598.553L282.47 582.065V565.577Z" fill="#DBEDFF"/>
<path d="M272.578 603.499L141.773 610.595V635.214L216.149 630.966L141.773 637.197V654.062L272.578 644.6V603.499Z" fill="white"/>
<path d="M282.47 556.233L151.666 563.793V590.017L156.612 592.129H151.666V610.094L282.47 600.015V569.424H259.387L282.47 567.775V556.233Z" fill="white"/>
<path d="M116.217 556.811L151.794 570.502L282.47 556.233L244.182 545.911L116.217 556.811Z" fill="#DBEDFF"/>
<path d="M275.961 601.567L289.15 585.322C292.738 588.303 302.817 594.823 314.421 597.061C326.024 599.298 340.059 597.082 345.626 595.694C343.85 600.594 332.616 611.237 329.487 612.341C325.576 613.721 313.193 616.561 303.085 614.871C294.999 613.52 281.633 605.439 275.961 601.567Z" fill="#DBEDFF"/>
<path d="M381.591 618.538L381.503 595.864C376.172 597.674 369.769 599.683 355.544 597.383C341.319 595.083 337.247 587.572 331.425 583.758C331.466 589.884 311.523 603.561 314.664 606.062C318.59 609.188 325.746 616.161 338.03 618.451C347.858 620.282 373.507 620.473 381.591 618.538Z" fill="white"/>
<path d="M130.427 574.37V489.182L254.441 480.389V556.783L130.427 574.37Z" fill="#DBEDFF"/>
<path d="M253.937 475.329L130.438 489.101V545.791L207.725 538.646L130.438 549.089V573.455L253.937 555.092V475.329Z" fill="white"/>
<path d="M96.7066 475.903L130.438 489.594V573.455L96.7066 555.199V475.903Z" fill="#DBEDFF"/>
<path d="M96.7059 475.9L130.437 489.591L253.937 475.903L218.029 465L96.7059 475.9Z" fill="#DBEDFF"/>
<path d="M96.7056 475.9L130.437 489.591L253.936 475.903L218.029 465L96.7056 475.9Z" fill="#DBEDFF"/>
<path d="M185 391.444C185 386.781 189.068 383 194.087 383H702.914C707.932 383 712 386.781 712 391.444V393.555C712 398.219 707.932 402 702.914 402H194.087C189.068 402 185 398.219 185 393.555V391.444Z" fill="#FFD546"/>
<path fill-rule="evenodd" clip-rule="evenodd" d="M454.867 278.495C454.642 280.287 454.821 281.39 455 281.788C455.668 283.273 455.007 285.016 453.524 285.682C452.041 286.347 450.298 285.682 449.631 284.197C448.785 282.314 448.754 279.904 449.025 277.749C449.31 275.482 449.993 273.01 451.013 270.739C452.023 268.49 453.447 266.254 455.329 264.637C457.259 262.978 459.805 261.881 462.762 262.381C464.501 262.675 465.773 263.741 466.468 265.186C467.074 266.449 467.19 267.876 467.156 269.122C467.087 271.641 466.342 274.807 465.449 277.99C464.85 280.125 464.132 282.438 463.419 284.734C463.058 285.897 462.699 287.057 462.356 288.186C461.316 291.621 460.416 294.843 459.942 297.548C459.661 299.15 458.136 300.219 456.534 299.935C454.932 299.651 453.861 298.122 454.142 296.52C454.683 293.434 455.676 289.916 456.721 286.467C457.09 285.25 457.463 284.048 457.83 282.865C458.527 280.621 459.201 278.449 459.78 276.387C460.673 273.204 461.222 270.666 461.269 268.95C461.278 268.622 461.267 268.36 461.246 268.156C460.598 268.184 459.921 268.464 459.17 269.11C458.157 269.981 457.178 271.395 456.384 273.162C455.601 274.907 455.079 276.815 454.867 278.495Z" fill="white"/>
<path d="M411.449 275.083L452.394 261.522L461.777 305.733L429.111 317.707L411.449 275.083Z" fill="white"/>
<path d="M461.947 306.126C462.455 307.627 455.39 311.889 446.389 314.895C437.388 317.901 429.679 319.122 429.171 317.622C428.663 316.122 435.548 312.468 444.549 309.462C453.55 306.455 461.439 304.626 461.947 306.126Z" fill="white"/>
<path d="M452.691 262.344C453.551 265.248 445.897 269.698 434.217 273.13C422.536 276.561 412.327 278.03 411.467 275.126C410.607 272.223 419.422 266.046 431.102 262.615C442.783 259.184 451.831 259.441 452.691 262.344Z" fill="white"/>
<path fill-rule="evenodd" clip-rule="evenodd" d="M454.233 266.413C454.915 266.275 455.582 266.718 455.721 267.401L457 273.685C457.139 274.369 456.698 275.035 456.015 275.173C455.333 275.311 454.666 274.868 454.527 274.185L453.248 267.901C453.109 267.217 453.55 266.551 454.233 266.413Z" fill="#594998"/>
<path fill-rule="evenodd" clip-rule="evenodd" d="M458.004 284.295C458.731 284.304 459.46 285.063 459.632 285.99L461.116 293.995C461.288 294.922 460.838 295.666 460.111 295.657C459.384 295.648 458.654 294.889 458.483 293.962L456.998 285.957C456.826 285.03 457.276 284.286 458.004 284.295Z" fill="#594998"/>
<path d="M424.108 287.869C427.026 286.668 431.006 289.587 432.998 294.39C434.99 299.193 434.239 304.061 431.321 305.262C428.403 306.464 424.423 303.544 422.432 298.741C420.44 293.938 421.191 289.071 424.108 287.869Z" fill="#DBEDFF"/>
<path fill-rule="evenodd" clip-rule="evenodd" d="M415.483 273.168C415.613 272.529 416.33 272.043 417.084 272.083C428.27 272.673 437.949 268.504 446.294 263.208C446.934 262.802 447.793 262.874 448.211 263.369C448.63 263.864 448.45 264.595 447.809 265.001C439.179 270.478 428.777 275.04 416.613 274.398C415.859 274.358 415.353 273.808 415.483 273.168Z" fill="#594998"/>
<path d="M417.211 273.12C421.009 269.859 439.637 263.334 447.176 263.974C442.394 267.277 438.198 268.408 435.343 269.294C428.014 271.57 430.78 271.08 417.211 273.12Z" fill="#594998"/>
<path fill-rule="evenodd" clip-rule="evenodd" d="M438.156 252.599C437.196 252.688 436.344 251.969 436.252 250.993C436.126 249.649 436.513 248.008 436.914 246.699C437.336 245.321 437.87 244.01 438.242 243.204C438.65 242.318 439.689 241.94 440.562 242.36C441.434 242.78 441.81 243.838 441.401 244.724C441.086 245.406 440.614 246.566 440.246 247.768C439.856 249.04 439.671 250.089 439.726 250.669C439.818 251.645 439.115 252.509 438.156 252.599Z" fill="#594998"/>
<path d="M445.843 263.581C438.672 268.796 429.52 273.465 418.971 271.977C423.367 270.689 433.431 259.016 435.942 258.929C441.42 258.739 434.369 265.069 445.843 263.581Z" fill="#594998"/>
<path opacity="0.3" fill-rule="evenodd" clip-rule="evenodd" d="M182.498 213.599C181.146 212.061 178.803 211.911 177.265 213.263C168.281 221.163 160.335 235.035 156.734 246.928C156.141 248.887 157.249 250.957 159.209 251.551C161.169 252.144 163.238 251.036 163.832 249.076C167.132 238.174 174.449 225.615 182.162 218.831C183.7 217.479 183.85 215.136 182.498 213.599Z" fill="white"/>
<path opacity="0.3" fill-rule="evenodd" clip-rule="evenodd" d="M397.202 380.341C398.818 379.338 399.946 377.429 399.722 376.075C398.409 368.17 392.67 360.705 386.34 356.937C385.296 356.317 383.434 357.082 382.179 358.648C380.924 360.213 380.753 361.986 381.796 362.607C387.599 366.06 392.742 372.919 393.869 379.706C394.094 381.06 395.586 381.344 397.202 380.341Z" fill="white"/>
<g filter="url(#filter0_b_257_704)">
<path d="M296.433 237.831C297.537 240.182 294.396 243.914 289.418 246.167C284.441 248.419 275.132 249.144 274.028 246.793C272.924 244.442 280.442 239.905 285.42 237.653C290.398 235.4 295.328 235.48 296.433 237.831Z" fill="white" fill-opacity="0.5"/>
</g>
<g filter="url(#filter1_b_257_704)">
<path d="M328.019 233.545C328.157 236.142 332.433 238.214 337.569 238.174C342.705 238.133 350.747 234.891 350.609 232.294C350.471 229.696 342.205 228.728 337.069 228.768C331.933 228.809 327.881 230.947 328.019 233.545Z" fill="white" fill-opacity="0.5"/>
</g>
<path d="M364.72 258.264C362.441 250.835 354.541 246.557 347.074 248.71L325.641 254.889C318.174 257.042 313.968 264.81 316.247 272.239C318.526 279.669 326.426 283.946 333.893 281.794L355.326 275.615C362.792 273.462 366.998 265.694 364.72 258.264Z" fill="white"/>
<path fill-rule="evenodd" clip-rule="evenodd" d="M355.355 268.072C348.724 269.604 342.13 265.575 340.627 259.072C339.896 255.908 340.505 252.742 342.087 250.148L347.074 248.71C354.541 246.557 362.441 250.835 364.72 258.264C364.73 258.298 364.74 258.331 364.75 258.364C363.891 262.994 360.315 266.926 355.355 268.072Z" fill="#5343B7"/>
<path d="M303.893 276.481C301.614 269.051 293.714 264.773 286.247 266.926L264.814 273.105C257.347 275.258 253.141 283.026 255.42 290.455C257.699 297.885 265.599 302.163 273.066 300.01L294.499 293.831C301.965 291.678 306.171 283.91 303.893 276.481Z" fill="white"/>
<path fill-rule="evenodd" clip-rule="evenodd" d="M294.528 286.288C287.897 287.82 281.303 283.791 279.8 277.288C279.069 274.124 279.678 270.958 281.26 268.364L286.247 266.926C293.714 264.773 301.614 269.051 303.893 276.48C303.903 276.514 303.913 276.547 303.923 276.581C303.064 281.21 299.488 285.142 294.528 286.288Z" fill="#5343B7"/>
<path opacity="0.3" fill-rule="evenodd" clip-rule="evenodd" d="M249.803 298.117C248.185 299.41 247.844 301.807 249.041 303.471C252.827 308.732 259.44 311.692 265.218 311.679C267.231 311.674 268.897 309.962 268.94 307.855C268.983 305.748 267.387 304.043 265.374 304.048C261.628 304.056 257.217 302.008 254.902 298.789C253.704 297.125 251.422 296.825 249.803 298.117Z" fill="#DAD5FF"/>
<path d="M312.19 313.671C322.636 309.699 323.175 302.275 324.409 298.076C324.842 296.603 322.772 296.145 320.614 296.965L307.127 302.094C304.239 303.192 301.267 304.009 298.328 304.512C297.003 304.739 295.834 305.669 295.89 306.497C296.196 310.953 303.003 317.164 312.19 313.671Z" fill="white"/>
<path d="M823.281 622.465C815.178 641.443 793.651 650.441 775.2 642.563C756.749 634.685 748.361 612.913 756.464 593.935C764.567 574.956 786.094 565.958 804.545 573.836C822.996 581.715 831.385 603.486 823.281 622.465Z" fill="#EB758A"/>
<path fill-rule="evenodd" clip-rule="evenodd" d="M822.853 591.559L814.916 590.779L814.915 590.779C814.882 590.774 814.848 590.776 814.814 590.777C814.798 590.778 814.783 590.779 814.767 590.779C814.752 590.779 814.738 590.778 814.723 590.777C814.694 590.776 814.665 590.774 814.636 590.778C814.599 590.783 814.563 590.793 814.527 590.804C814.512 590.809 814.497 590.813 814.482 590.817C814.466 590.822 814.451 590.825 814.435 590.828C814.411 590.834 814.388 590.839 814.365 590.848C814.32 590.866 814.277 590.892 814.234 590.917C814.224 590.924 814.213 590.93 814.202 590.936C814.19 590.944 814.176 590.951 814.163 590.957C814.146 590.966 814.13 590.974 814.114 590.985C814.036 591.041 813.962 591.108 813.9 591.182L804.464 602.321L792.44 600.588L810.897 578.799C810.961 578.724 811.014 578.642 811.058 578.554C811.067 578.537 811.072 578.518 811.078 578.5C811.082 578.486 811.086 578.472 811.091 578.459C811.096 578.446 811.101 578.434 811.106 578.421C811.123 578.377 811.141 578.333 811.151 578.285C811.157 578.261 811.158 578.236 811.159 578.212C811.159 578.196 811.16 578.18 811.162 578.165C811.163 578.148 811.165 578.132 811.167 578.116C811.172 578.08 811.176 578.043 811.175 578.006C811.174 577.985 811.17 577.965 811.166 577.944C810.232 577.222 809.257 576.548 808.242 575.927L808.529 576.808L796.508 575.075L795.314 571.406C794.528 571.308 793.74 571.239 792.951 571.197L794.475 575.884L775.19 598.65L775.188 598.652C775.17 598.673 775.156 598.697 775.141 598.721C775.134 598.733 775.127 598.745 775.119 598.757C775.113 598.766 775.106 598.775 775.1 598.784C775.074 598.82 775.049 598.856 775.03 598.894L775.029 598.895C775.014 598.923 775.006 598.953 774.998 598.982C774.994 598.996 774.99 599.009 774.985 599.022C774.981 599.033 774.977 599.044 774.973 599.054C774.958 599.091 774.944 599.127 774.937 599.163L774.935 599.167C774.929 599.194 774.928 599.221 774.927 599.249C774.927 599.265 774.926 599.282 774.924 599.299C774.923 599.315 774.921 599.331 774.919 599.347C774.916 599.379 774.912 599.411 774.914 599.443L774.913 599.448C774.914 599.473 774.92 599.499 774.926 599.524C774.93 599.54 774.933 599.556 774.936 599.572C774.939 599.588 774.941 599.605 774.944 599.622C774.948 599.653 774.952 599.684 774.961 599.713L774.963 599.718L774.965 599.723L779.35 612.852L771.078 622.618L762.838 597.303L784.427 571.817C783.285 572.041 782.149 572.32 781.021 572.652L760.845 596.469C760.719 596.619 760.632 596.796 760.592 596.984C760.552 597.171 760.561 597.362 760.618 597.537L769.605 625.153C769.621 625.202 769.646 625.246 769.67 625.289C769.675 625.299 769.681 625.31 769.687 625.32C769.692 625.33 769.697 625.341 769.701 625.351C769.708 625.368 769.715 625.385 769.725 625.399C769.826 625.548 769.965 625.665 770.129 625.738C770.142 625.744 770.156 625.748 770.17 625.751C770.181 625.753 770.192 625.756 770.202 625.76L770.218 625.765C770.275 625.785 770.332 625.805 770.392 625.814L799.252 629.978C799.626 630.03 800.012 629.876 800.269 629.573L809.704 618.435L823.53 620.429C823.714 620.456 823.904 620.433 824.083 620.362C824.262 620.291 824.446 619.161 824.573 619.012C824.809 617.726 825.296 617.074 825.433 615.797L823.388 618.211L823.389 618.212L811.363 616.477L819.554 606.807L826.448 607.433C826.407 606.687 826.483 606.061 826.409 605.325L820.012 604.676L816.267 593.172L823.433 593.197C823.134 592.405 823.196 592.324 822.853 591.559ZM807.305 618.082L799.109 627.759L772.654 623.943L780.928 614.176L800.463 617.071L807.305 618.082ZM790.035 600.24L783.061 599.234L778.01 598.506L796.052 577.208L803.028 578.214L808.077 578.942L790.035 600.24ZM815.805 598.808L817.978 605.483L809.787 615.153L808.214 610.319L806.041 603.645L814.232 593.976L815.805 598.808ZM798.962 614.648L781.382 612.045L777.574 600.643L790.178 602.461L804.007 604.455L807.749 615.95L798.962 614.648Z" fill="#DD667B"/>
<path opacity="0.5" fill-rule="evenodd" clip-rule="evenodd" d="M773.037 584.796C774.088 586.2 773.714 588.224 772.201 589.318C771.323 589.954 769.174 591.888 768.084 593.987C766.769 596.516 766.357 597.797 766.18 598.837C766.041 599.653 766.027 600.328 766.004 601.409C765.992 601.984 765.978 602.674 765.941 603.561C765.867 605.34 764.315 606.804 762.475 606.829C760.634 606.855 759.203 605.434 759.277 603.654C759.298 603.147 759.309 602.638 759.321 602.132C759.351 600.773 759.381 599.428 759.6 598.135C759.937 596.151 760.688 594.176 762.156 591.352C763.926 587.947 767.013 585.236 768.396 584.236C769.908 583.142 771.986 583.393 773.037 584.796Z" fill="#F2C095"/>
<path d="M759.773 617.102C759.773 642.904 738.511 663.821 712.282 663.821C686.053 663.821 664.79 642.904 664.79 617.102C664.79 591.299 686.053 570.383 712.282 570.383C738.511 570.383 759.773 591.299 759.773 617.102Z" fill="#93E174"/>
<path d="M759.773 617.102C759.773 642.904 738.511 663.821 712.282 663.821C686.053 663.821 664.79 642.904 664.79 617.102C664.79 591.299 686.053 570.383 712.282 570.383C738.511 570.383 759.773 591.299 759.773 617.102Z" fill="#93E174"/>
<path opacity="0.4" fill-rule="evenodd" clip-rule="evenodd" d="M678.711 602.607C680.7 603.566 681.524 605.929 680.552 607.885C679.856 609.285 678.453 613.142 678.556 616.568C678.676 620.554 679.061 622.467 679.599 623.946C680.013 625.081 680.495 625.972 681.244 627.354C681.632 628.072 682.093 628.921 682.652 630.006C683.655 631.95 682.867 634.323 680.893 635.306C678.919 636.288 676.507 635.51 675.504 633.566C675.161 632.9 674.81 632.25 674.463 631.609C673.551 629.921 672.67 628.292 672.053 626.596C671.111 624.011 670.674 621.167 670.543 616.787C670.387 611.614 672.337 606.447 673.349 604.41C674.321 602.455 676.722 601.648 678.711 602.607Z" fill="#F6F5F1"/>
<path fill-rule="evenodd" clip-rule="evenodd" d="M689.797 620.905C695.908 640.301 715.877 650.285 733.245 644.373C751.292 638.231 761.112 617.267 754.931 598.562C748.998 579.58 729.205 569.297 711.597 575.296C693.48 581.469 683.916 602.241 689.797 620.905ZM694.127 619.435C699.426 636.256 716.742 644.914 731.804 639.787C747.455 634.46 755.97 616.281 750.611 600.061C745.465 583.6 728.301 574.682 713.032 579.884C697.32 585.237 689.027 603.25 694.127 619.435Z" fill="#6EB652"/>
<path d="M732.894 606.171C733.28 607.62 732.486 609.212 731.263 609.409C731.257 609.411 731.251 609.413 731.245 609.415C729.964 609.863 728.57 609.126 728.132 607.769C727.738 606.392 728.458 604.948 729.751 604.523C731.035 604.083 732.541 604.834 732.894 606.171ZM716.724 627.15C717.213 626.997 717.693 626.818 718.25 626.623L719.444 630.334C716.18 632.161 712.991 632.114 711.293 629.256C710.686 628.199 710.166 627.09 709.736 625.942C709.264 624.732 708.991 623.437 708.505 622.235C707.166 618.926 706.378 617.912 703.252 618.823L701.893 614.599C702.096 614.467 702.306 614.349 702.523 614.244C704.18 613.568 704.714 612.773 704.525 610.883C704.379 609.835 704.159 608.799 703.865 607.784C703.374 605.795 702.692 603.838 702.382 601.82C701.934 598.903 703.122 596.996 705.748 595.914C706.495 595.606 707.27 595.376 708.133 595.076L709.353 598.868C709.007 599.018 708.699 599.186 708.373 599.289C706.17 599.978 706.311 600.803 706.766 602.77C707.053 604.004 707.582 605.175 707.892 606.405C708.197 607.63 708.429 608.873 708.587 610.127C708.821 611.943 708.239 613.557 707.214 615.111C710.468 616.019 711.689 618.767 712.794 621.603C713.388 623.128 713.85 624.71 714.498 626.207C715.001 627.369 715.541 627.522 716.724 627.15ZM713.736 610.104C713.75 610.1 713.763 610.095 713.777 610.09C715.058 609.669 716.431 610.426 716.844 611.783C716.858 611.827 716.871 611.872 716.883 611.916C717.235 613.26 716.493 614.639 715.224 614.997C715.174 615.015 715.124 615.032 715.073 615.047C713.784 615.422 712.44 614.619 712.07 613.255C711.701 611.89 712.447 610.479 713.736 610.104ZM721.671 607.339C723.06 606.842 724.293 607.476 724.769 608.932C725.259 610.427 724.69 611.691 723.309 612.179C721.903 612.677 720.674 612.056 720.2 610.609C720.172 610.537 720.147 610.463 720.125 610.388C719.75 609.087 720.442 607.721 721.671 607.339ZM737.69 599.701C738.532 601.038 739.419 601.302 740.899 600.864C741.141 600.793 741.393 600.753 741.732 600.677L743.091 604.901C742.934 605.024 742.767 605.133 742.592 605.228C740.682 606.037 740.065 607.195 740.535 609.337C740.835 610.705 741.276 612.04 741.617 613.398C742.05 614.87 742.393 616.368 742.643 617.883C742.985 620.669 741.866 622.508 739.374 623.553C738.572 623.89 737.734 624.134 736.851 624.441L735.637 620.666C736.102 620.47 736.507 620.281 736.924 620.124C738.431 619.556 738.801 618.85 738.361 617.225C737.878 615.44 737.349 613.669 736.857 611.887C736.148 609.311 736.074 606.814 737.797 604.452C736.209 603.932 734.808 603.121 734.035 601.638C733.099 599.84 732.367 597.924 731.571 596.047C731.174 595.109 730.864 594.131 730.463 593.194C730.031 592.183 729.238 592.058 728.333 592.347C727.814 592.513 727.302 592.704 726.644 592.933L725.458 589.247C729.415 587.047 732.788 587.516 734.425 591.673C735.112 593.419 735.672 595.219 736.355 596.966C736.715 597.921 737.162 598.837 737.69 599.701Z" fill="#6EB652"/>
<path d="M553.407 345.464C554.298 339.19 559.531 334.443 565.857 334.169L661.869 330.013C670.534 329.638 677.182 337.614 675.259 346.077L673.853 352.264C673.279 354.788 673.462 357.425 674.379 359.845L676.399 365.178C679.659 373.787 673.303 383 664.103 383H560.427C551.043 383 544.679 373.445 548.29 364.778L551.246 357.684C551.674 356.655 551.971 355.575 552.127 354.472L553.407 345.464Z" fill="#4198F2"/>
<path d="M574.102 327.9C575.051 327.312 576.147 327 577.265 327C581.502 327 584.401 331.261 582.832 335.182L576.224 351.691C575.78 352.8 575.489 353.964 575.36 355.152L572.647 380.06C572.464 381.741 571.034 383.011 569.336 383L506.345 382.573C500.335 382.532 497.079 375.545 500.927 370.945C501.829 369.866 503.033 369.078 504.386 368.682L509.959 367.049C511.103 366.714 512.197 366.226 513.209 365.599L574.102 327.9Z" fill="#99C9F9"/>
<path d="M571.264 330.5C571.264 324.149 576.423 319 582.786 319H683.742C690.106 319 695.264 324.149 695.264 330.5C695.264 336.851 690.106 342 683.742 342H582.786C576.423 342 571.264 336.851 571.264 330.5Z" fill="#4AA3FF"/>
<path d="M585.264 364C585.264 361.791 587.249 360 589.697 360H662.832C665.28 360 667.264 361.791 667.264 364C667.264 366.209 665.28 368 662.832 368H589.697C587.249 368 585.264 366.209 585.264 364Z" fill="#4AA3FF"/>
<path d="M512.74 366.758C511.777 365.161 512.291 363.086 513.888 362.123L569.845 328.378C571.442 327.415 573.518 327.928 574.481 329.525C575.444 331.122 574.93 333.198 573.333 334.161L517.375 367.906C515.778 368.869 513.703 368.355 512.74 366.758Z" fill="#4AA3FF"/>
<path d="M561.264 330C561.264 328.895 562.272 328 563.514 328H568.014C569.257 328 570.264 328.895 570.264 330C570.264 331.105 569.257 332 568.014 332H563.514C562.272 332 561.264 331.105 561.264 330Z" fill="#4AA3FF"/>
<path d="M567.264 329.952C567.264 323.904 572.189 319 578.264 319C584.339 319 589.264 323.904 589.264 329.952V331.048C589.264 337.097 584.339 342 578.264 342C572.189 342 567.264 337.097 567.264 331.048V329.952Z" fill="#6FB6FF"/>
<path d="M498.264 380C498.264 378.343 499.482 377 500.985 377H569.544C571.046 377 572.264 378.343 572.264 380C572.264 381.657 571.046 383 569.544 383H500.985C499.482 383 498.264 381.657 498.264 380Z" fill="#4AA3FF"/>
<path d="M518.264 357.5C518.264 356.119 519.271 355 520.514 355H525.014C526.257 355 527.264 356.119 527.264 357.5C527.264 358.881 526.257 360 525.014 360H520.514C519.271 360 518.264 358.881 518.264 357.5Z" fill="#4AA3FF"/>
<path d="M527.264 352C527.264 350.895 528.271 350 529.514 350H534.014C535.257 350 536.264 350.895 536.264 352C536.264 353.105 535.257 354 534.014 354H529.514C528.271 354 527.264 353.105 527.264 352Z" fill="#4AA3FF"/>
<path d="M535.264 346.5C535.264 345.119 536.271 344 537.514 344H542.014C543.257 344 544.264 345.119 544.264 346.5C544.264 347.881 543.257 349 542.014 349H537.514C536.271 349 535.264 347.881 535.264 346.5Z" fill="#4AA3FF"/>
<path d="M544.264 341C544.264 339.895 545.271 339 546.514 339H551.014C552.257 339 553.264 339.895 553.264 341C553.264 342.105 552.257 343 551.014 343H546.514C545.271 343 544.264 342.105 544.264 341Z" fill="#4AA3FF"/>
<path d="M553.264 335.5C553.264 334.119 554.16 333 555.264 333H559.264C560.369 333 561.264 334.119 561.264 335.5C561.264 336.881 560.369 338 559.264 338H555.264C554.16 338 553.264 336.881 553.264 335.5Z" fill="#4AA3FF"/>
<path d="M591.264 324.5C591.264 323.119 592.251 322 593.469 322H686.06C687.277 322 688.264 323.119 688.264 324.5C688.264 325.881 687.277 327 686.06 327H593.469C592.251 327 591.264 325.881 591.264 324.5Z" fill="#6DB5FF"/>
<path d="M787.264 295.5C787.264 294.672 786.497 294 785.55 294H772.979C772.032 294 771.264 294.672 771.264 295.5C771.264 296.328 772.032 297 772.979 297H785.55C786.497 297 787.264 296.328 787.264 295.5Z" fill="#DBEDFF"/>
<path d="M832.739 421.999C832.461 421.131 831.533 420.654 830.666 420.931L789.841 434.01C788.973 434.287 788.496 435.216 788.773 436.083C789.051 436.95 789.979 437.428 790.847 437.15L831.672 424.072C832.539 423.794 833.017 422.866 832.739 421.999Z" fill="#DBEDFF"/>
<path d="M836.692 420.528C836.415 419.661 836.892 418.733 837.76 418.455L847.098 415.464C847.965 415.186 848.893 415.664 849.171 416.531C849.449 417.398 848.971 418.326 848.104 418.604L838.766 421.596C837.898 421.873 836.97 421.396 836.692 420.528Z" fill="#DBEDFF"/>
<path d="M833.586 455.517C833.296 454.653 833.761 453.719 834.624 453.429L876.741 439.277C877.605 438.987 878.54 439.452 878.83 440.315C879.12 441.178 878.655 442.113 877.792 442.403L835.675 456.554C834.811 456.844 833.877 456.38 833.586 455.517Z" fill="#DBEDFF"/>
<path d="M821.645 473.537C821.339 472.679 821.786 471.736 822.643 471.429L894.628 445.694C895.486 445.388 896.429 445.834 896.736 446.692C897.042 447.549 896.596 448.493 895.738 448.799L823.753 474.534C822.896 474.841 821.952 474.394 821.645 473.537Z" fill="#DBEDFF"/>
<path d="M816.301 461.694C816.011 460.831 816.476 459.896 817.339 459.606L826.634 456.483C827.497 456.193 828.432 456.658 828.722 457.521C829.012 458.384 828.547 459.319 827.684 459.609L818.389 462.732C817.526 463.022 816.591 462.558 816.301 461.694Z" fill="#DBEDFF"/>
<path d="M883.5 426.346C883.211 425.483 882.277 425.017 881.414 425.306L809.896 449.249C809.033 449.538 808.567 450.472 808.856 451.336C809.145 452.199 810.079 452.665 810.943 452.376L882.46 428.433C883.324 428.144 883.79 427.21 883.5 426.346Z" fill="#DBEDFF"/>
<path d="M865.264 421.928C864.99 421.059 864.063 420.578 863.195 420.852L808.689 438.062C807.821 438.336 807.339 439.262 807.613 440.13C807.887 440.999 808.814 441.48 809.682 441.206L864.188 423.996C865.056 423.722 865.538 422.796 865.264 421.928Z" fill="#DBEDFF"/>
<path d="M795.57 306.36C795.57 305.45 794.832 304.711 793.921 304.711H782.662C781.751 304.711 781.013 305.45 781.013 306.36C781.013 307.271 781.751 308.009 782.662 308.009H793.921C794.832 308.009 795.57 307.271 795.57 306.36Z" fill="#DBEDFF"/>
<path d="M776.637 360.139C776.493 359.239 775.647 358.628 774.748 358.772L771.492 359.295C770.593 359.439 769.981 360.285 770.126 361.184C770.27 362.083 771.116 362.695 772.015 362.551L775.271 362.028C776.17 361.884 776.782 361.038 776.637 360.139Z" fill="#DBEDFF"/>
<path d="M767.481 276.682C767.481 275.771 766.743 275.033 765.832 275.033L731.712 275.033C730.802 275.033 730.064 275.771 730.064 276.682C730.064 277.592 730.802 278.331 731.712 278.331L765.832 278.331C766.743 278.331 767.481 277.592 767.481 276.682Z" fill="#DBEDFF"/>
<path d="M770.688 276.682C770.688 275.771 771.426 275.033 772.337 275.033L788.282 275.033C789.193 275.033 789.931 275.771 789.931 276.682C789.931 277.592 789.193 278.331 788.282 278.331L772.337 278.331C771.426 278.331 770.688 277.592 770.688 276.682Z" fill="#DBEDFF"/>
<path d="M793.139 276.682C793.139 275.771 793.877 275.033 794.787 275.033L804.319 275.033C805.229 275.033 805.967 275.771 805.967 276.682C805.967 277.592 805.229 278.331 804.319 278.331L794.787 278.331C793.877 278.331 793.139 277.592 793.139 276.682Z" fill="#DBEDFF"/>
<path d="M717.586 167.861C717.586 166.951 718.324 166.212 719.235 166.212H779.364C780.275 166.212 781.013 166.951 781.013 167.861C781.013 168.772 780.275 169.51 779.364 169.51H719.235C718.324 169.51 717.586 168.772 717.586 167.861Z" fill="#DBEDFF"/>
<path d="M740.461 197.54C740.461 196.629 741.199 195.891 742.11 195.891H805.359C806.269 195.891 807.007 196.629 807.007 197.54C807.007 198.45 806.269 199.188 805.359 199.188H742.11C741.199 199.188 740.461 198.45 740.461 197.54Z" fill="#DBEDFF"/>
<path d="M808.047 266.789C808.047 265.878 807.309 265.14 806.398 265.14H733.792C732.881 265.14 732.143 265.878 732.143 266.789C732.143 267.7 732.881 268.438 733.792 268.438H806.398C807.309 268.438 808.047 267.7 808.047 266.789Z" fill="#DBEDFF"/>
<path d="M767.496 296.467C767.496 295.557 766.757 294.819 765.847 294.819H725.474C724.563 294.819 723.825 295.557 723.825 296.467C723.825 297.378 724.563 298.116 725.474 298.116H765.847C766.757 298.116 767.496 297.378 767.496 296.467Z" fill="#DBEDFF"/>
<path d="M756.043 354.649C755.922 353.746 755.092 353.113 754.19 353.234L724.776 357.185C723.873 357.306 723.24 358.136 723.361 359.038C723.482 359.941 724.312 360.574 725.215 360.453L754.629 356.502C755.531 356.381 756.165 355.551 756.043 354.649Z" fill="#DBEDFF"/>
<path d="M727.984 177.754C727.984 176.843 728.722 176.105 729.633 176.105H753.37C754.28 176.105 755.018 176.843 755.018 177.754C755.018 178.665 754.28 179.403 753.37 179.403H729.633C728.722 179.403 727.984 178.665 727.984 177.754Z" fill="#DBEDFF"/>
<path d="M757.098 177.754C757.098 176.843 757.836 176.105 758.747 176.105H788.722C789.633 176.105 790.371 176.843 790.371 177.754C790.371 178.665 789.633 179.403 788.722 179.403H758.747C757.836 179.403 757.098 178.665 757.098 177.754Z" fill="#DBEDFF"/>
<path d="M770.615 207.432C770.615 206.522 771.353 205.784 772.263 205.784H810.557C811.468 205.784 812.206 206.522 812.206 207.432C812.206 208.343 811.468 209.081 810.557 209.081H772.263C771.353 209.081 770.615 208.343 770.615 207.432Z" fill="#DBEDFF"/>
<path d="M757.097 207.432C757.097 206.522 757.836 205.784 758.746 205.784H765.846C766.757 205.784 767.495 206.522 767.495 207.432C767.495 208.343 766.757 209.081 765.846 209.081H758.746C757.836 209.081 757.097 208.343 757.097 207.432Z" fill="#DBEDFF"/>
<path d="M742.541 207.432C742.541 206.522 743.279 205.784 744.189 205.784H751.29C752.2 205.784 752.938 206.522 752.938 207.432C752.938 208.343 752.2 209.081 751.29 209.081H744.189C743.279 209.081 742.541 208.343 742.541 207.432Z" fill="#DBEDFF"/>
<path d="M719.666 316.253C719.666 315.342 720.404 314.604 721.314 314.604H739.852C740.763 314.604 741.501 315.342 741.501 316.253C741.501 317.164 740.763 317.902 739.852 317.902H721.314C720.404 317.902 719.666 317.164 719.666 316.253Z" fill="#DBEDFF"/>
<path d="M741.501 217.325C741.501 216.415 742.24 215.676 743.15 215.676H786.643C787.553 215.676 788.292 216.415 788.292 217.325C788.292 218.236 787.553 218.974 786.643 218.974H743.15C742.24 218.974 741.501 218.236 741.501 217.325Z" fill="#DBEDFF"/>
<path d="M791.411 217.325C791.411 216.415 792.149 215.676 793.06 215.676H811.598C812.508 215.676 813.246 216.415 813.246 217.325C813.246 218.236 812.508 218.974 811.598 218.974H793.06C792.149 218.974 791.411 218.236 791.411 217.325Z" fill="#DBEDFF"/>
<path d="M743.581 237.111C743.581 236.2 744.319 235.462 745.229 235.462H816.796C817.707 235.462 818.445 236.2 818.445 237.111C818.445 238.021 817.707 238.76 816.796 238.76H745.229C744.319 238.76 743.581 238.021 743.581 237.111Z" fill="#DBEDFF"/>
<path d="M779.973 187.647C779.973 186.736 780.711 185.998 781.622 185.998H800.16C801.07 185.998 801.809 186.736 801.809 187.647C801.809 188.557 801.07 189.296 800.16 189.296H781.622C780.711 189.296 779.973 188.557 779.973 187.647Z" fill="#DBEDFF"/>
<path d="M735.263 187.647C735.263 186.736 736.001 185.998 736.911 185.998H775.205C776.116 185.998 776.854 186.736 776.854 187.647C776.854 188.557 776.116 189.296 775.205 189.296H736.911C736.001 189.296 735.263 188.557 735.263 187.647Z" fill="#DBEDFF"/>
<path d="M744.621 227.218C744.621 226.307 745.359 225.569 746.27 225.569H771.046C771.957 225.569 772.695 226.307 772.695 227.218C772.695 228.128 771.957 228.867 771.046 228.867H746.27C745.359 228.867 744.621 228.128 744.621 227.218Z" fill="#DBEDFF"/>
<path d="M774.774 227.218C774.774 226.307 775.513 225.569 776.423 225.569H814.717C815.627 225.569 816.366 226.307 816.366 227.218C816.366 228.128 815.627 228.867 814.717 228.867H776.423C775.513 228.867 774.774 228.128 774.774 227.218Z" fill="#DBEDFF"/>
<path d="M738.382 247.003C738.382 246.093 739.12 245.355 740.031 245.355H793.921C794.832 245.355 795.57 246.093 795.57 247.003C795.57 247.914 794.832 248.652 793.921 248.652H740.031C739.12 248.652 738.382 247.914 738.382 247.003Z" fill="#DBEDFF"/>
<path d="M813.246 247.003C813.246 246.093 812.508 245.355 811.598 245.355H800.338C799.428 245.355 798.689 246.093 798.689 247.003C798.689 247.914 799.428 248.652 800.338 248.652H811.598C812.508 248.652 813.246 247.914 813.246 247.003Z" fill="#DBEDFF"/>
<path d="M766.456 256.896C766.456 255.986 765.717 255.247 764.807 255.247H736.911C736 255.247 735.262 255.986 735.262 256.896C735.262 257.807 736 258.545 736.911 258.545H764.807C765.717 258.545 766.456 257.807 766.456 256.896Z" fill="#DBEDFF"/>
<path d="M812.206 256.896C812.206 255.986 811.468 255.247 810.557 255.247H772.263C771.353 255.247 770.615 255.986 770.615 256.896C770.615 257.807 771.353 258.545 772.263 258.545H810.557C811.468 258.545 812.206 257.807 812.206 256.896Z" fill="#DBEDFF"/>
<path d="M753.978 286.575C753.978 285.664 753.24 284.926 752.329 284.926H727.553C726.642 284.926 725.904 285.664 725.904 286.575C725.904 287.485 726.642 288.223 727.553 288.223H752.329C753.24 288.223 753.978 287.485 753.978 286.575Z" fill="#DBEDFF"/>
<path d="M802.848 286.575C802.848 285.664 802.11 284.926 801.199 284.926L757.707 284.926C756.796 284.926 756.058 285.664 756.058 286.575C756.058 287.485 756.796 288.223 757.707 288.223L801.199 288.223C802.11 288.223 802.848 287.485 802.848 286.575Z" fill="#DBEDFF"/>
<path d="M777.893 306.36C777.893 305.45 777.155 304.711 776.245 304.711H722.354C721.444 304.711 720.705 305.45 720.705 306.36C720.705 307.271 721.444 308.009 722.354 308.009H776.245C777.155 308.009 777.893 307.271 777.893 306.36Z" fill="#DBEDFF"/>
<path d="M766.87 361.707C766.726 360.808 765.88 360.196 764.981 360.341L729.166 366.091C728.267 366.236 727.655 367.081 727.799 367.981C727.944 368.88 728.79 369.491 729.689 369.347L765.504 363.596C766.403 363.452 767.015 362.606 766.87 361.707Z" fill="#DBEDFF"/>
<path d="M162.311 363.886C175.268 351.543 200.307 340.764 210.283 343.712C209.686 349.462 211.873 380.938 208.025 382.88C203.013 385.408 176.366 395.155 173.303 402.908C170.239 410.661 171.151 414.793 168.906 417.197C165.659 420.674 163.166 419.541 162.311 418.297C156.265 409.503 139.461 385.653 162.311 363.886Z" fill="#B4A8FF"/>
<path opacity="0.3" fill-rule="evenodd" clip-rule="evenodd" d="M158.779 384.342C157.378 383.603 156.581 381.937 156.997 380.622C159.433 372.938 166.049 365.089 172.682 360.674C173.775 359.947 175.448 360.428 176.418 361.75C177.389 363.071 177.289 364.733 176.196 365.46C170.116 369.507 164.162 376.702 162.071 383.299C161.654 384.614 160.18 385.081 158.779 384.342Z" fill="white"/>
<path d="M679.264 261L598.679 263.189C592.152 287.264 589.807 299.448 592.151 319H672.685C672.685 302.585 672.686 279.604 679.264 261Z" fill="#DBEDFF"/>
<path d="M673.264 293.2L593.541 280C590.269 296.5 589.666 299.8 590.773 311.9L672.711 313C672.711 305.85 672.157 300.35 673.264 293.2Z" fill="white"/>
<path d="M97.9918 516.974L128.265 526.974L91.2645 524.343L97.9918 516.974Z" fill="white"/>
<path d="M116.097 628.974L145.265 642.974L114.265 632.375L116.097 628.974Z" fill="white"/>
<path d="M124.265 596.974L136.111 601.849L145.265 604.016L132.341 609.974L124.265 596.974Z" fill="white"/>
<path opacity="0.1" d="M205.265 389C211.433 388.2 223.207 384.833 229.265 383H208.337L189.764 390.5C192.702 390.167 199.096 389.8 205.265 389Z" fill="#225083"/>
<path fill-rule="evenodd" clip-rule="evenodd" d="M181.992 354.694C182.146 355.839 181.438 356.907 180.41 357.079C171.552 358.559 162.338 365.127 157.755 375.155C153.236 385.041 153.071 398.639 162.866 414.629C163.452 415.585 163.231 416.89 162.373 417.543C161.514 418.196 160.343 417.949 159.757 416.993C149.322 399.958 149.156 384.726 154.401 373.252C159.58 361.919 169.891 354.596 179.852 352.931C180.88 352.76 181.838 353.549 181.992 354.694Z" fill="#9386E3"/>
</g>
<defs>
<filter id="filter0_b_257_704" x="260.613" y="222.709" width="49.3455" height="38.8392" filterUnits="userSpaceOnUse" color-interpolation-filters="sRGB">
<feFlood flood-opacity="0" result="BackgroundImageFix"/>
<feGaussianBlur in="BackgroundImageFix" stdDeviation="6.65264"/>
<feComposite in2="SourceAlpha" operator="in" result="effect1_backgroundBlur_257_704"/>
<feBlend mode="normal" in="SourceGraphic" in2="effect1_backgroundBlur_257_704" result="shape"/>
</filter>
<filter id="filter1_b_257_704" x="314.711" y="215.462" width="49.2054" height="36.0178" filterUnits="userSpaceOnUse" color-interpolation-filters="sRGB">
<feFlood flood-opacity="0" result="BackgroundImageFix"/>
<feGaussianBlur in="BackgroundImageFix" stdDeviation="6.65264"/>
<feComposite in2="SourceAlpha" operator="in" result="effect1_backgroundBlur_257_704"/>
<feBlend mode="normal" in="SourceGraphic" in2="effect1_backgroundBlur_257_704" result="shape"/>
</filter>
<clipPath id="clip0_257_704">
<rect width="716" height="1066" fill="white" transform="translate(1066 6.10352e-05) rotate(90)"/>
</clipPath>
</defs>
</svg>
